<svg width="42" height="39" viewBox="0 0 42 39" fill="none" xmlns="http://www.w3.org/2000/svg">
<g clip-path="url(#clip0_8_487)">
<path d="M5.74656 29.2259C7.28673 30.3002 9.78384 30.3002 11.324 29.2259C12.8641 28.1516 12.8641 26.4098 11.324 25.3355C9.78384 24.2612 7.28673 24.2612 5.74656 25.3355C4.20639 26.4098 4.20639 28.1516 5.74656 29.2259Z" fill="#A4074D"/>
<path d="M21.7322 14.6371C24.0425 16.2485 27.7881 16.2485 30.0984 14.6371C32.4086 13.0256 32.4086 10.413 30.0984 8.8016C27.7881 7.19016 24.0425 7.19016 21.7322 8.8016C19.422 10.413 19.422 13.0256 21.7322 14.6371Z" fill="#A4074D"/>
<path d="M13.2464 21.9314C15.1716 23.2742 18.293 23.2742 20.2182 21.9314C22.1434 20.5885 22.1434 18.4113 20.2182 17.0684C18.293 15.7256 15.1716 15.7256 13.2464 17.0684C11.3212 18.4113 11.3212 20.5885 13.2464 21.9314Z" fill="#A4074D"/>
<path d="M0.866345 20.9588C2.02147 21.7645 3.8943 21.7645 5.04943 20.9588C6.20455 20.1531 6.20455 18.8468 5.04943 18.041C3.8943 17.2353 2.02147 17.2353 0.866345 18.041C-0.288782 18.8468 -0.288781 20.1531 0.866345 20.9588Z" fill="#A4074D"/>
<path d="M13.2464 6.37008C15.1716 7.71294 18.293 7.71294 20.2182 6.37008C22.1434 5.02722 22.1434 2.85001 20.2182 1.50715C18.293 0.164284 15.1716 0.164283 13.2464 1.50715C11.3212 2.85001 11.3212 5.02722 13.2464 6.37008Z" fill="#A4074D"/>
<path d="M5.74655 13.6646C7.28672 14.7389 9.78383 14.7389 11.324 13.6646C12.8641 12.5903 12.8641 10.8485 11.324 9.77422C9.78383 8.69993 7.28672 8.69993 5.74655 9.77422C4.20638 10.8485 4.20639 12.5903 5.74655 13.6646Z" fill="#A4074D"/>
<path d="M13.2464 37.4929C15.1716 38.8357 18.293 38.8357 20.2182 37.4929C22.1434 36.15 22.1434 33.9728 20.2182 32.6299C18.293 31.2871 15.1716 31.2871 13.2464 32.6299C11.3212 33.9728 11.3212 36.15 13.2464 37.4929Z" fill="#A4074D"/>
<path d="M31.9011 22.4179C34.2114 24.0293 37.9571 24.0293 40.2673 22.4179C42.5776 20.8065 42.5776 18.1938 40.2673 16.5824C37.9571 14.9709 34.2114 14.9709 31.9011 16.5824C29.5909 18.1938 29.5909 20.8065 31.9011 22.4179Z" fill="#A4074D"/>
<path d="M21.7322 30.1983C24.0425 31.8098 27.7881 31.8098 30.0984 30.1983C32.4086 28.5869 32.4086 25.9743 30.0984 24.3628C27.7881 22.7514 24.0425 22.7514 21.7322 24.3628C19.422 25.9743 19.422 28.5869 21.7322 30.1983Z" fill="#A4074D"/>
</g>
<defs>
<clipPath id="clip0_8_487">
<rect width="42" height="38" fill="white" transform="translate(0 0.5)"/>
</clipPath>
</defs>
</svg>
