<svg width="48" height="48" viewBox="0 0 48 48" fill="none" xmlns="http://www.w3.org/2000/svg">
<path d="M35.9131 16.4008C35.1206 16.7422 34.2874 16.9799 33.4341 17.1081C33.833 17.0396 34.42 16.3209 34.6537 16.03C35.0086 15.5912 35.2792 15.0903 35.4515 14.5527C35.4515 14.5128 35.4914 14.4557 35.4515 14.4272C35.4314 14.4162 35.4089 14.4105 35.386 14.4105C35.3631 14.4105 35.3405 14.4162 35.3204 14.4272C34.3939 14.9294 33.4078 15.3127 32.3855 15.568C32.3499 15.5789 32.3119 15.5799 32.2758 15.5708C32.2396 15.5618 32.2066 15.5431 32.1803 15.5167C32.1008 15.4218 32.0151 15.3323 31.9239 15.2486C31.5069 14.8746 31.0338 14.5686 30.5219 14.3416C29.831 14.0579 29.0846 13.935 28.3392 13.9823C27.616 14.028 26.9099 14.2222 26.2648 14.5527C25.6296 14.9012 25.0713 15.3746 24.6235 15.9445C24.1525 16.531 23.8124 17.2118 23.6262 17.9409C23.4727 18.6344 23.4552 19.3512 23.5749 20.0513C23.5749 20.1711 23.5749 20.1882 23.4723 20.1711C19.409 19.5722 16.0751 18.1291 13.351 15.0318C13.2313 14.8949 13.1687 14.8949 13.0718 15.0318C11.8864 16.8343 12.462 19.6863 13.9437 21.0952C14.1432 21.2834 14.3483 21.4659 14.5649 21.6371C13.8855 21.5888 13.2228 21.4045 12.6159 21.0952C12.5019 21.021 12.4392 21.061 12.4335 21.1979C12.4173 21.3876 12.4173 21.5785 12.4335 21.7683C12.5524 22.6778 12.9105 23.5394 13.4713 24.265C14.032 24.9906 14.7752 25.5541 15.6249 25.898C15.832 25.9868 16.0479 26.0537 16.2689 26.0976C15.64 26.2215 14.9949 26.2408 14.3597 26.1546C14.223 26.1261 14.1717 26.2003 14.223 26.3315C15.0607 28.6131 16.8787 29.3089 18.2122 29.6968C18.3946 29.7253 18.577 29.7253 18.7821 29.771C18.7821 29.771 18.7821 29.771 18.7479 29.8052C18.3547 30.5239 16.7647 31.0087 16.0352 31.2597C14.7038 31.7384 13.2842 31.9214 11.875 31.7959C11.6527 31.7617 11.6015 31.7674 11.5445 31.7959C11.4875 31.8244 11.5445 31.8872 11.6071 31.9442C11.8921 32.1324 12.177 32.2979 12.4734 32.4576C13.3556 32.9392 14.2883 33.3218 15.2545 33.5984C20.2581 34.9787 25.8887 33.9634 29.6443 30.2273C32.5964 27.2954 33.6336 23.2513 33.6336 19.2014C33.6336 19.0474 33.8216 18.9562 33.9299 18.8763C34.6768 18.2939 35.3352 17.606 35.8846 16.8343C35.9798 16.7192 36.0286 16.5728 36.0214 16.4236C36.0214 16.338 36.0214 16.3551 35.9131 16.4008Z" fill="white"/>
</svg>
