<svg width="80" height="80" viewBox="0 0 80 80" fill="none" xmlns="http://www.w3.org/2000/svg">
<g clip-path="url(#clip0_8_1008)">
<path opacity="0.2" d="M67.5 15H12.5C11.837 15 11.2011 15.2634 10.7322 15.7322C10.2634 16.2011 10 16.837 10 17.5V57.5C10 58.163 10.2634 58.7989 10.7322 59.2678C11.2011 59.7366 11.837 60 12.5 60H50V51.1875C47.0341 48.5353 45.2433 44.8136 45.0215 40.8411C44.7997 36.8685 46.165 32.9706 48.8172 30.0047C51.4694 27.0388 55.1911 25.248 59.1636 25.0262C63.1362 24.8044 67.0341 26.1697 70 28.8219V17.5C70 16.837 69.7366 16.2011 69.2678 15.7322C68.7989 15.2634 68.163 15 67.5 15Z" fill="#1A2434"/>
<path d="M60 55C68.2843 55 75 48.2843 75 40C75 31.7157 68.2843 25 60 25C51.7157 25 45 31.7157 45 40C45 48.2843 51.7157 55 60 55Z" stroke="#1A2434" stroke-width="2" stroke-linecap="round" stroke-linejoin="round"/>
<path d="M70 51.1906V70L60 65L50 70V51.1875" stroke="#1A2434" stroke-width="2" stroke-linecap="round" stroke-linejoin="round"/>
<path d="M40 60H12.5C11.837 60 11.2011 59.7366 10.7322 59.2678C10.2634 58.7989 10 58.163 10 57.5V17.5C10 16.837 10.2634 16.2011 10.7322 15.7322C11.2011 15.2634 11.837 15 12.5 15H67.5C68.163 15 68.7989 15.2634 69.2678 15.7322C69.7366 16.2011 70 16.837 70 17.5" stroke="#1A2434" stroke-width="2" stroke-linecap="round" stroke-linejoin="round"/>
<path d="M22.5 42.5H35" stroke="#1A2434" stroke-width="2" stroke-linecap="round" stroke-linejoin="round"/>
<path d="M22.5 32.5H35" stroke="#1A2434" stroke-width="2" stroke-linecap="round" stroke-linejoin="round"/>
</g>
<defs>
<clipPath id="clip0_8_1008">
<rect width="80" height="80" fill="white"/>
</clipPath>
</defs>
</svg>
