<svg width="80" height="80" viewBox="0 0 80 80" fill="none" xmlns="http://www.w3.org/2000/svg">
<g clip-path="url(#clip0_8_992)">
<path opacity="0.2" d="M65 27.5H15C14.337 27.5 13.7011 27.7634 13.2322 28.2322C12.7634 28.7011 12.5 29.337 12.5 30V65C12.5 65.663 12.7634 66.2989 13.2322 66.7678C13.7011 67.2366 14.337 67.5 15 67.5H65C65.663 67.5 66.2989 67.2366 66.7678 66.7678C67.2366 66.2989 67.5 65.663 67.5 65V30C67.5 29.337 67.2366 28.7011 66.7678 28.2322C66.2989 27.7634 65.663 27.5 65 27.5ZM40 50C38.7639 50 37.5555 49.6334 36.5277 48.9467C35.4999 48.2599 34.6988 47.2838 34.2258 46.1418C33.7527 44.9997 33.6289 43.7431 33.8701 42.5307C34.1112 41.3183 34.7065 40.2047 35.5806 39.3306C36.4547 38.4565 37.5683 37.8612 38.7807 37.6201C39.9931 37.3789 41.2497 37.5027 42.3918 37.9758C43.5338 38.4488 44.5099 39.2499 45.1967 40.2777C45.8834 41.3055 46.25 42.5139 46.25 43.75C46.25 45.4076 45.5915 46.9973 44.4194 48.1694C43.2473 49.3415 41.6576 50 40 50Z" fill="#1A2434"/>
<path d="M65 27.5H15C13.6193 27.5 12.5 28.6193 12.5 30V65C12.5 66.3807 13.6193 67.5 15 67.5H65C66.3807 67.5 67.5 66.3807 67.5 65V30C67.5 28.6193 66.3807 27.5 65 27.5Z" stroke="#1A2434" stroke-width="2" stroke-linecap="round" stroke-linejoin="round"/>
<path d="M27.5 27.5V17.5C27.5 14.1848 28.817 11.0054 31.1612 8.66117C33.5054 6.31696 36.6848 5 40 5C46.0469 5 51.3406 9.29375 52.5 15" stroke="#1A2434" stroke-width="2" stroke-linecap="round" stroke-linejoin="round"/>
<path d="M40 50C43.4518 50 46.25 47.2018 46.25 43.75C46.25 40.2982 43.4518 37.5 40 37.5C36.5482 37.5 33.75 40.2982 33.75 43.75C33.75 47.2018 36.5482 50 40 50Z" stroke="#1A2434" stroke-width="2" stroke-linecap="round" stroke-linejoin="round"/>
<path d="M40 50V57.5" stroke="#1A2434" stroke-width="2" stroke-linecap="round" stroke-linejoin="round"/>
</g>
<defs>
<clipPath id="clip0_8_992">
<rect width="80" height="80" fill="white"/>
</clipPath>
</defs>
</svg>
