<svg width="80" height="80" viewBox="0 0 80 80" fill="none" xmlns="http://www.w3.org/2000/svg">
<g clip-path="url(#clip0_8_962)">
<path opacity="0.2" d="M40 20C44.1421 20 47.5 16.6421 47.5 12.5C47.5 8.35786 44.1421 5 40 5C35.8579 5 32.5 8.35786 32.5 12.5C32.5 16.6421 35.8579 20 40 20Z" fill="#1A2434"/>
<path opacity="0.2" d="M46.6156 25C47.6798 25.0002 48.7317 25.2268 49.7016 25.6649C50.6714 26.1029 51.5369 26.7423 52.2406 27.5406L66.4031 43.5969C66.7519 43.9457 67.0286 44.3598 67.2174 44.8156C67.4062 45.2713 67.5034 45.7598 67.5034 46.2531C67.5034 46.7464 67.4062 47.2349 67.2174 47.6907C67.0286 48.1464 66.7519 48.5605 66.4031 48.9094C66.0543 49.2582 65.6402 49.5349 65.1844 49.7237C64.7286 49.9125 64.2402 50.0096 63.7469 50.0096C63.2535 50.0096 62.7651 49.9125 62.3093 49.7237C61.8535 49.5349 61.4394 49.2582 61.0906 48.9094L50 40L57.1469 67.1656C57.5504 68.0645 57.5839 69.086 57.2402 70.0094C56.8966 70.9328 56.2033 71.6838 55.3103 72.1002C54.4173 72.5165 53.3963 72.5646 52.4681 72.2342C51.5399 71.9038 50.779 71.2213 50.35 70.3344L40 52.5L29.65 70.3344C29.2209 71.2213 28.4601 71.9038 27.5318 72.2342C26.6036 72.5646 25.5827 72.5165 24.6897 72.1002C23.7967 71.6838 23.1034 70.9328 22.7597 70.0094C22.4161 69.086 22.4496 68.0645 22.8531 67.1656L30 40L18.9031 48.9031C18.1986 49.6076 17.2431 50.0034 16.2469 50.0034C15.2506 50.0034 14.2951 49.6076 13.5906 48.9031C12.8861 48.1986 12.4904 47.2432 12.4904 46.2469C12.4904 45.2506 12.8861 44.2951 13.5906 43.5906L27.7594 27.5406C28.463 26.7423 29.3286 26.1029 30.2984 25.6649C31.2682 25.2268 32.3202 25.0002 33.3844 25H46.6156Z" fill="#1A2434"/>
<path d="M40 20C44.1421 20 47.5 16.6421 47.5 12.5C47.5 8.35786 44.1421 5 40 5C35.8579 5 32.5 8.35786 32.5 12.5C32.5 16.6421 35.8579 20 40 20Z" stroke="#1A2434" stroke-width="2" stroke-linecap="round" stroke-linejoin="round"/>
<path d="M46.6156 25C47.6798 25.0002 48.7317 25.2268 49.7016 25.6649C50.6714 26.1029 51.5369 26.7423 52.2406 27.5406L66.4031 43.5969C66.7519 43.9457 67.0286 44.3598 67.2174 44.8156C67.4062 45.2713 67.5034 45.7598 67.5034 46.2531C67.5034 46.7464 67.4062 47.2349 67.2174 47.6907C67.0286 48.1464 66.7519 48.5605 66.4031 48.9094C66.0543 49.2582 65.6402 49.5349 65.1844 49.7237C64.7286 49.9125 64.2402 50.0096 63.7469 50.0096C63.2535 50.0096 62.7651 49.9125 62.3093 49.7237C61.8536 49.5349 61.4394 49.2582 61.0906 48.9094L50 40L57.1469 67.1656C57.5504 68.0645 57.5839 69.086 57.2402 70.0094C56.8966 70.9328 56.2033 71.6838 55.3103 72.1002C54.4173 72.5165 53.3963 72.5646 52.4681 72.2342C51.5399 71.9038 50.779 71.2213 50.35 70.3344L40 52.5L29.65 70.3344C29.2209 71.2213 28.4601 71.9038 27.5318 72.2342C26.6036 72.5646 25.5827 72.5165 24.6897 72.1002C23.7967 71.6838 23.1034 70.9328 22.7597 70.0094C22.4161 69.086 22.4496 68.0645 22.8531 67.1656L30 40L18.9031 48.9031C18.1986 49.6076 17.2431 50.0034 16.2469 50.0034C15.2506 50.0034 14.2951 49.6076 13.5906 48.9031C12.8861 48.1986 12.4904 47.2432 12.4904 46.2469C12.4904 45.2506 12.8861 44.2951 13.5906 43.5906L27.7594 27.5406C28.463 26.7423 29.3286 26.1029 30.2984 25.6649C31.2682 25.2268 32.3202 25.0002 33.3844 25H46.6156Z" stroke="#1A2434" stroke-width="2" stroke-linecap="round" stroke-linejoin="round"/>
</g>
<defs>
<clipPath id="clip0_8_962">
<rect width="80" height="80" fill="white"/>
</clipPath>
</defs>
</svg>
