<svg width="23" height="23" viewBox="0 0 23 23" fill="none" xmlns="http://www.w3.org/2000/svg">
<g clip-path="url(#clip0_34_2470)">
<path d="M19.4062 3.59375H3.59375C3.2125 3.59375 2.84687 3.7452 2.57728 4.01478C2.3077 4.28437 2.15625 4.65 2.15625 5.03125V17.9688C2.15625 18.35 2.3077 18.7156 2.57728 18.9852C2.84687 19.2548 3.2125 19.4062 3.59375 19.4062H19.4062C19.7875 19.4062 20.1531 19.2548 20.4227 18.9852C20.6923 18.7156 20.8438 18.35 20.8438 17.9688V5.03125C20.8438 4.65 20.6923 4.28437 20.4227 4.01478C20.1531 3.7452 19.7875 3.59375 19.4062 3.59375ZM11.5 12.2188C10.3566 12.2176 9.26041 11.7628 8.45192 10.9543C7.64342 10.1458 7.18869 9.04963 7.1875 7.90625C7.1875 7.71563 7.26323 7.53281 7.39802 7.39802C7.53281 7.26323 7.71563 7.1875 7.90625 7.1875C8.09687 7.1875 8.27969 7.26323 8.41448 7.39802C8.54927 7.53281 8.625 7.71563 8.625 7.90625C8.625 8.66875 8.9279 9.40001 9.46707 9.93918C10.0062 10.4783 10.7375 10.7812 11.5 10.7812C12.2625 10.7812 12.9938 10.4783 13.5329 9.93918C14.0721 9.40001 14.375 8.66875 14.375 7.90625C14.375 7.71563 14.4507 7.53281 14.5855 7.39802C14.7203 7.26323 14.9031 7.1875 15.0938 7.1875C15.2844 7.1875 15.4672 7.26323 15.602 7.39802C15.7368 7.53281 15.8125 7.71563 15.8125 7.90625C15.8113 9.04963 15.3566 10.1458 14.5481 10.9543C13.7396 11.7628 12.6434 12.2176 11.5 12.2188Z" fill="#A4074D"/>
</g>
<defs>
<clipPath id="clip0_34_2470">
<rect width="23" height="23" fill="white"/>
</clipPath>
</defs>
</svg>
